<svg width="99" height="35" viewBox="0 0 99 35" fill="none" xmlns="http://www.w3.org/2000/svg">
<path d="M23.5034 12.047C21.8191 12.047 20.4074 12.5947 19.2997 13.6762L19.4849 12.628C19.4954 12.5702 19.4796 12.5107 19.4412 12.467C19.4028 12.4215 19.3486 12.397 19.2892 12.397H16.3976C16.3015 12.397 16.2193 12.4652 16.2036 12.5597L13.8326 25.9718C13.8222 26.0295 13.8379 26.089 13.8763 26.1327C13.9148 26.1782 13.9689 26.2027 14.0283 26.2027H16.92C17.0161 26.2027 17.0982 26.1345 17.1139 26.04L18.3859 18.851C18.8017 16.5007 20.2187 15.1515 22.2752 15.1515C23.1173 15.1515 23.7673 15.3965 24.1552 15.8585C24.5658 16.3485 24.695 17.0992 24.5308 18.0302L23.1278 25.97C23.1173 26.0277 23.133 26.0872 23.1715 26.131C23.2099 26.1765 23.2641 26.201 23.3235 26.201H26.2169C26.313 26.201 26.3951 26.1327 26.4108 26.0382L27.8662 17.8027C28.1842 16.0055 27.8959 14.5092 27.0346 13.4785C26.2483 12.5405 25.0288 12.0435 23.5069 12.0435L23.5034 12.047ZM98.9479 25.8755L92.9602 19.1677L98.7347 12.7277C98.7872 12.67 98.7994 12.586 98.7679 12.5142C98.7365 12.4425 98.6649 12.397 98.588 12.397H95.0534C94.9957 12.397 94.9416 12.4215 94.9049 12.4652L90.0546 17.9987V7.231C90.0546 7.1225 89.9655 7.03325 89.8572 7.03325H86.9655C86.8555 7.03325 86.7681 7.1225 86.7681 7.231V26.0085C86.7681 26.117 86.8572 26.2062 86.9655 26.2062H89.8572C89.9672 26.2062 90.0546 26.117 90.0546 26.0085V20.3333L95.2001 26.1397C95.2368 26.1817 95.291 26.2062 95.3486 26.2062H98.8029C98.8815 26.2062 98.9514 26.1607 98.9828 26.089C99.0143 26.0173 99.0021 25.935 98.9497 25.8755H98.9479ZM13.3295 12.3953H10.4378C10.3417 12.3953 10.2596 12.4635 10.2439 12.558L7.87292 25.97C7.86244 26.0277 7.87816 26.0872 7.9166 26.131C7.95504 26.1765 8.0092 26.201 8.06861 26.201H10.9602C11.0563 26.201 11.1385 26.1327 11.1542 26.0382L13.5251 12.6263C13.5356 12.5685 13.5199 12.509 13.4815 12.4652C13.443 12.4197 13.3889 12.3953 13.3295 12.3953ZM12.4314 10.92C12.966 10.92 13.4727 10.7065 13.8606 10.318C14.259 9.919 14.4809 9.4045 14.4844 8.869C14.4879 8.33525 14.2764 7.826 13.8903 7.43925C13.5024 7.03675 12.987 6.81625 12.4349 6.81625C11.8828 6.81625 11.3673 7.0385 10.983 7.4375C10.1775 8.24425 10.1757 9.4815 10.9847 10.3215C11.3848 10.7082 11.8985 10.92 12.4314 10.92ZM46.3342 12.047C44.4612 12.047 42.9534 12.6823 41.8456 13.937V7.22925C41.8456 7.12075 41.7565 7.0315 41.6482 7.0315H38.7548C38.6448 7.0315 38.5574 7.12075 38.5574 7.22925V26.0068C38.5574 26.1152 38.6465 26.2045 38.7548 26.2045H41.6482C41.7583 26.2045 41.8456 26.1152 41.8456 26.0068V24.6435C42.9481 25.9105 44.456 26.5527 46.3342 26.5527C48.2125 26.5527 49.8356 25.8667 51.1915 24.4527C52.5246 23.0632 53.2007 21.329 53.2007 19.299C53.2007 17.269 52.5246 15.5365 51.1915 14.1453C49.8356 12.733 48.2474 12.0452 46.3342 12.0452V12.047ZM48.7646 22.246C48.0028 23.009 47.0314 23.3958 45.8782 23.3958C44.725 23.3958 43.7518 23.009 42.9936 22.2495C42.2195 21.4497 41.8439 20.4855 41.8439 19.3025C41.8439 18.1195 42.23 17.1465 42.9936 16.3818C43.7466 15.603 44.7163 15.2075 45.8782 15.2075C47.0401 15.2075 48.0098 15.603 48.7646 16.3835C49.5264 17.1465 49.9125 18.1283 49.9125 19.3025C49.9125 20.4767 49.5369 21.4498 48.7646 22.2478V22.246ZM69.0724 12.397H66.1808C66.0707 12.397 65.9833 12.4862 65.9833 12.5948V13.937C64.8756 12.6823 63.3678 12.047 61.4947 12.047C59.6217 12.047 57.9933 12.733 56.6375 14.147C55.3026 15.5382 54.6265 17.2707 54.6265 19.3007C54.6265 21.3307 55.3026 23.0633 56.6375 24.4545C57.9933 25.8668 59.5816 26.5545 61.4947 26.5545C63.4079 26.5545 64.8808 25.9123 65.9833 24.6453V26.0085C65.9833 26.117 66.0724 26.2062 66.1808 26.2062H69.0724C69.1825 26.2062 69.2698 26.117 69.2698 26.0085V12.5965C69.2698 12.488 69.1807 12.3987 69.0724 12.3987V12.397ZM64.8354 22.246C64.0736 23.009 63.1022 23.3958 61.949 23.3958C60.7959 23.3958 59.8227 23.009 59.0644 22.2495C58.2904 21.4497 57.9147 20.4855 57.9147 19.3025C57.9147 18.1195 58.3008 17.1465 59.0644 16.3818C59.8174 15.603 60.7871 15.2075 61.949 15.2075C63.1109 15.2075 64.0806 15.603 64.8354 16.3835C65.5972 17.1465 65.9833 18.1283 65.9833 19.3025C65.9833 20.4767 65.6077 21.4498 64.8354 22.2478V22.246ZM79.0839 12.047C77.3821 12.047 76.0542 12.6052 75.13 13.7095V12.5948C75.13 12.4862 75.0409 12.397 74.9325 12.397H72.0409C71.9308 12.397 71.8435 12.4862 71.8435 12.5948V26.0068C71.8435 26.1152 71.9326 26.2045 72.0409 26.2045H74.9325C75.0426 26.2045 75.13 26.1152 75.13 26.0068V18.8177C75.13 16.4552 76.2674 15.1532 78.3343 15.1532C80.1147 15.1532 81.1369 16.2155 81.1369 18.067V26.0068C81.1369 26.1152 81.226 26.2045 81.3343 26.2045H84.2277C84.3378 26.2045 84.4251 26.1152 84.4251 26.0068V17.7712C84.4251 14.294 82.3285 12.047 79.0856 12.047H79.0839ZM17.4721 0C10.5881 0 6.5066 1.14625 3.82464 3.83075C1.14267 6.517 0 10.6032 0 17.5C0 24.3967 1.14442 28.483 3.82464 31.1693C6.5066 33.8555 10.5863 35 17.4721 35C24.3578 35 28.4376 33.8537 31.1195 31.1693C33.8015 28.4847 34.9442 24.3967 34.9442 17.5C34.9442 10.6032 33.7997 6.517 31.1195 3.83075C28.4376 1.14625 24.3578 0 17.4721 0ZM28.794 28.84C26.8144 30.8228 23.3235 31.7065 17.4721 31.7065C11.6207 31.7065 8.12976 30.8228 6.15017 28.84C4.17059 26.8573 3.28825 23.3608 3.28825 17.5C3.28825 11.6392 4.17059 8.14275 6.15017 6.16C8.12976 4.17725 11.6207 3.2935 17.4721 3.2935C23.3235 3.2935 26.8144 4.17725 28.794 6.16C30.7736 8.14275 31.6559 11.6392 31.6559 17.5C31.6559 23.3608 30.7736 26.8573 28.794 28.84Z" fill="#21093A"/>
</svg>
