<svg width="184" height="24" viewBox="0 0 184 24" fill="none" xmlns="http://www.w3.org/2000/svg">
<path fill-rule="evenodd" clip-rule="evenodd" d="M66.4403 6.00977C63.8911 6.00977 61.9707 7.13537 61.1103 9.15497C60.3487 6.70497 58.5277 6.00977 56.3099 6.00977C53.8931 6.00977 52.1383 7.03597 51.2445 8.88997V6.47317H48.0001V21.5366H51.6417L51.7079 13.3594C51.7411 10.3138 53.3963 9.22097 55.1179 9.22097C56.7731 9.22097 57.9651 9.94937 57.9981 13.1608L58.0643 21.5366H61.7059V13.3594C61.7391 10.3138 63.4275 9.22097 65.1821 9.22097C66.7711 9.22097 67.9631 9.94937 67.9961 13.1608L68.0625 21.5366H71.7041V12.6972C71.7041 7.30097 69.4529 6.00977 66.4403 6.00977Z" fill="#442DD2"/>
<path fill-rule="evenodd" clip-rule="evenodd" d="M83.5243 18.59C80.9751 18.59 79.0879 16.703 79.1541 13.9884C79.2203 11.3398 80.9751 9.41957 83.5243 9.41957C86.1065 9.41957 87.8613 11.3068 87.8943 13.9884C87.9607 16.703 86.1065 18.59 83.5243 18.59ZM83.5243 6.00977C78.8893 6.00977 75.3801 9.15477 75.3801 14.0546C75.3801 18.9212 78.8231 22 83.5243 22C88.2255 22 91.6685 18.9212 91.6685 14.0546C91.6685 9.15477 88.1591 6.00977 83.5243 6.00977Z" fill="#442DD2"/>
<path fill-rule="evenodd" clip-rule="evenodd" d="M103.21 6.00977C100.76 6.00977 98.972 7.06917 98.078 8.88997V6.47317H94.8336V21.5366H98.4754L98.5414 13.2932C98.5746 10.3466 100.197 9.25417 102.051 9.25417C103.739 9.25417 104.898 9.94937 104.931 13.1608L104.997 21.5366H108.606V12.6972C108.606 7.30097 106.388 6.00977 103.21 6.00977Z" fill="#442DD2"/>
<path fill-rule="evenodd" clip-rule="evenodd" d="M118.641 18.7888C117.217 18.7888 116.621 17.9278 116.621 15.8424V9.4858L120.958 9.4526V6.44H116.621V1H112.979V6.4732H111.125V9.5188H112.979V16.1072C112.979 20.3116 114.403 22 117.647 22C119.501 22 121.057 21.5034 122.018 20.775L121.157 17.8288C120.428 18.4578 119.601 18.7888 118.641 18.7888Z" fill="#442DD2"/>
<path fill-rule="evenodd" clip-rule="evenodd" d="M131.784 18.59C129.235 18.59 127.348 16.703 127.414 13.9884C127.48 11.3398 129.235 9.41957 131.784 9.41957C134.366 9.41957 136.121 11.3068 136.154 13.9884C136.22 16.703 134.366 18.59 131.784 18.59ZM131.784 6.00977C127.149 6.00977 123.64 9.15477 123.64 14.0546C123.64 18.9212 127.083 22 131.784 22C136.485 22 139.928 18.9212 139.928 14.0546C139.928 9.15477 136.419 6.00977 131.784 6.00977Z" fill="#442DD2"/>
<path fill-rule="evenodd" clip-rule="evenodd" d="M151.469 6.00977C149.019 6.00977 147.232 7.06917 146.338 8.88997V6.47317H143.093V21.5366H146.735L146.801 13.2932C146.834 10.3466 148.457 9.25417 150.311 9.25417C151.999 9.25417 153.158 9.94937 153.191 13.1608L153.257 21.5366H156.866V12.6972C156.866 7.30097 154.648 6.00977 151.469 6.00977Z" fill="#442DD2"/>
<path fill-rule="evenodd" clip-rule="evenodd" d="M162.898 0C161.706 0 160.68 0.9932 160.68 2.185C160.68 3.3768 161.706 4.37 162.898 4.37C164.057 4.37 165.083 3.3768 165.083 2.185C165.083 0.9932 164.057 0 162.898 0Z" fill="#442DD2"/>
<path fill-rule="evenodd" clip-rule="evenodd" d="M160.945 21.5366H164.586L164.652 6.47339H160.945V21.5366Z" fill="#442DD2"/>
<path fill-rule="evenodd" clip-rule="evenodd" d="M175.856 18.59C173.307 18.59 171.419 16.703 171.486 13.9884C171.552 11.3398 173.307 9.41957 175.856 9.41957C178.438 9.41957 180.193 11.3068 180.226 13.9884C180.292 16.703 178.438 18.59 175.856 18.59ZM175.856 6.00977C171.221 6.00977 167.712 9.15477 167.712 14.0546C167.712 18.9212 171.155 22 175.856 22C180.557 22 184 18.9212 184 14.0546C184 9.15477 180.491 6.00977 175.856 6.00977Z" fill="#442DD2"/>
<path fill-rule="evenodd" clip-rule="evenodd" d="M24.1428 20.7428C23.332 21.5536 22.2544 22 21.1078 22C19.9614 22 18.8834 21.5536 18.0726 20.7428L15.114 17.7844L13.7 16.3702L12.2858 17.7844L9.32739 20.7428C8.51679 21.5536 7.43859 22 6.29219 22C5.14579 22 4.06799 21.5536 3.25699 20.7428C2.44659 19.9322 1.99999 18.8544 1.99999 17.7078C1.99999 16.5614 2.44659 15.4834 3.25699 14.6726L10.4102 7.51984L10.4502 7.47984L10.488 7.43764C10.5494 7.36864 10.605 7.30964 10.6572 7.25724C11.4678 6.44664 12.5458 6.00024 13.693 6.00024H13.7054H13.7078C14.8544 6.00024 15.9322 6.44664 16.7432 7.25764C16.7954 7.30984 16.8504 7.36844 16.9114 7.43684L16.9494 7.47944L16.9898 7.51964L24.143 14.6726C24.9536 15.4834 25.4 16.5614 25.4 17.7078C25.4 18.8544 24.9536 19.9322 24.1428 20.7428ZM30.3054 7.25744C29.4946 6.44684 28.4168 6.00024 27.2704 6.00024C26.1238 6.00024 25.046 6.44684 24.2352 7.25744L21.8956 9.59704L18.404 6.10544C18.3244 6.01624 18.2426 5.92864 18.157 5.84304C16.9286 4.61444 15.318 4.00024 13.7078 4.00024H13.7H13.6922C12.082 4.00024 10.4716 4.61424 9.24299 5.84304C9.15739 5.92864 9.07559 6.01644 8.99619 6.10544L1.84299 13.2584C-0.614411 15.7158 -0.614411 19.6998 1.84299 22.157C3.07159 23.3858 4.68199 24 6.29219 24C7.90259 24 9.51299 23.3858 10.7416 22.157L13.7 19.1986L16.6586 22.157C17.8872 23.3858 19.4974 24 21.1078 24C22.718 24 24.3286 23.3858 25.557 22.157C27.1356 20.5786 27.6982 18.3704 27.2488 16.3412L31.627 20.7194C32.4378 21.53 33.5154 21.9764 34.6622 21.9764C35.8086 21.9764 36.8864 21.53 37.697 20.7194C38.5078 19.9086 38.9544 18.8306 38.9544 17.6842C38.9544 16.5378 38.5078 15.4598 37.697 14.6492L30.3054 7.25744Z" fill="#442DD2"/>
</svg>
