<svg id="Layer_1" data-name="Layer 1" xmlns="http://www.w3.org/2000/svg" viewBox="0 0 2173.0974 869.4645"><defs><style>.cls-1{fill:#f60;}</style></defs><path class="cls-1" d="M935.7559,432.2361c-53.2124,0-91.9114,38.699-91.9114,88.6878,0,49.9855,38.699,88.6877,91.9114,88.6877s91.9128-38.7022,91.9128-88.6877C1027.6687,470.9351,988.9683,432.2361,935.7559,432.2361Zm0,143.512c-30.637,0-53.2124-22.5755-53.2124-54.8242,0-32.252,22.5754-54.8257,53.2124-54.8257,30.6386,0,53.2124,22.5737,53.2124,54.8257C988.9683,553.1726,966.3945,575.7481,935.7559,575.7481ZM275.5306,265.6864c-117.748,117.748-117.748,308.6542,0,426.4022V603.7781c117.748,117.7478,308.6542,117.7476,426.402,0H275.5306Zm990.247,166.55c-45.1506,0-59.6625,33.8621-59.6625,33.8621h-1.6117s-11.2886-33.8621-53.2124-33.8621c-37.0889,0-51.6006,30.6388-51.6006,30.6388h-1.6118l-1.6116-25.8036h-35.4754V604.7732h37.087V514.4756c0-29.0271,20.962-48.3774,43.5374-48.3774,20.9619,0,33.862,11.29,33.862,37.0888V604.7732h37.0889V514.4756c0-29.0271,20.96-48.3774,43.5354-48.3774,20.9636,0,33.864,11.29,33.864,37.0888V604.7732h37.0872v-103.2C1327.0535,458.0364,1302.8665,432.2361,1265.7776,432.2361Zm-652.1557-254.86V603.7779C731.37,486.03,731.37,295.1236,613.6219,177.3758ZM187.22,265.6857H613.6219C495.874,147.9394,304.9676,147.9394,187.22,265.6857ZM1736.6716,551.5589H1735.06l-49.9871-114.4865h-38.7007l72.5626,167.7006h33.8636L1825.36,437.0724h-38.6989Zm176.6419-119.3225c-42.5694,0-66.9365,21.104-66.9365,21.104v33.8637h4.8366s20.176-21.1059,57.263-21.1059c25.8005,0,40.3125,12.9,40.3125,35.4756v14.5119s-17.7371-11.2868-48.3758-11.2868c-40.3122,0-62.886,22.5737-62.886,54.18,0,28.0573,22.5738,50.6325,56.4375,50.6325,41.9239,0,53.2124-30.6386,53.2124-30.6386h1.6119l1.6132,25.8h35.4756V499.9589C1985.8779,458.0366,1960.0774,432.2364,1913.3135,432.2364Zm-11.2869,145.1218c-16.125,0-25.8-8.06-25.8-22.57,0-14.5169,11.2869-24.1886,30.6387-24.1886,29.0237,0,41.9241,11.2867,41.9241,11.2867S1940.7271,577.3582,1902.0266,577.3582ZM1598.6357,359.6748c-11.9323,0-21.6057,8.06-21.6057,21.93,0,13.5456,9.6734,21.6071,21.6057,21.6071,12.2564,0,21.9317-8.0615,21.9317-21.6071C1620.5674,367.7349,1610.8921,359.6748,1598.6357,359.6748ZM1580.2533,604.773h37.089V437.0708h-37.089ZM1467.3611,432.2361c-40.312,0-54.8241,30.6388-54.8241,30.6388h-1.6117l-1.6135-25.8036h-35.4751V604.7732h37.0886V514.4756c0-27.4155,22.5754-48.3774,48.374-48.3774,22.5736,0,37.0872,12.9,37.0872,37.0888V604.7732h37.0871v-103.2C1533.4736,458.0364,1507.6732,432.2361,1467.3611,432.2361Z"/></svg>