<svg version="1.1" id="Layer_1" xmlns="http://www.w3.org/2000/svg" x="0" y="0" viewBox="0 0 433.89 95.28" style="enable-background:new 0 0 433.89 95.28" xml:space="preserve"><style>.st1{fill:#005dc0}</style><switch><g><path d="M369.48 43.54c-2.2-1.36-4.66-2.38-6.96-3.21-4.23-1.47-6.24-2.57-6.24-4.97 0-2.03 1.91-3.41 4.58-3.41 2.73 0 5.47.99 7.68 3.2l7.18-7.73c-4.23-3.96-8.73-6.15-14.85-6.15-6.44 0-15.1 5.06-15.1 14.45 0 3.16 1.08 5.73 2.76 7.81l20.95.01zm16.01 0h11.05V31.86h10.12v-9.67h-10.12V5.63h-11.05v16.56h-8.28v9.67h8.28v11.68zm35.16-21.35H409.6v21.34h11.05V22.19zm-87.9 24.1c-.3 7.38-5.53 12.67-12.85 12.67s-12.55-5.29-12.86-12.67h-11.06c.35 12.94 10.8 23.26 23.91 23.26 13.12 0 23.56-10.32 23.92-23.26h-11.06zm39.8 0h-21.67c2.28 1.58 5.92 3.41 8.22 4.3 4.51 1.74 6.23 2.68 6.23 4.91 0 2.16-2.46 3.37-5.4 3.37-3.68 0-6.26-1.38-8.84-3.68l-7.37 7.27c4.33 4.33 8.65 7.09 16.2 7.09 8.12 0 16.47-5.73 16.47-14.36.02-3.86-1.54-6.72-3.84-8.9zm12.94 22.33h11.05V46.29h-11.05v22.33zm24.11 0h11.05V46.29H409.6v22.33zM255.37 43.54c.62-6.99 5.91-11.68 12.9-11.68s12.28 4.82 13 11.68h11.08c-.79-12.79-10.37-22.27-23.16-22.27-6.13 0-10.99 2.27-13.82 5.26h-.18v-4.35h-11.05v21.34l11.23.02zm25.96 2.75c-.3 7.38-5.73 12.67-13.06 12.67s-12.71-5.19-12.97-12.67h-11.17V89.8h11.05V64.37h.18c2.98 3.04 7.3 5.17 13.42 5.17 13.12 0 23.27-9.89 23.6-23.26l-11.05.01zm25.77-2.75c.71-6.86 5.8-11.68 12.79-11.68s12.08 4.82 12.79 11.68h11.08c-.84-12.47-11.09-22.27-23.87-22.27s-23.02 9.79-23.87 22.27h11.08zm100.84-27.8c1.32 1.05 2.47 2.07 3.7 2.07.54 0 .96-.14 1.21-.34-2.54-.77-4.16-2.94-4.16-4.85 0-1.8 1.25-3.22 3.22-3.22 1.2 0 2.19.54 2.83 1.25.77-3.05 2.52-4.74 4.49-4.74 1.81 0 2.79 1.43 2.79 3.31 0 2.49-2.34 6.38-5.03 7.88.29.4.81.69 1.51.69 2.36 0 4.53-2.14 5.9-3.77.27-.32.61-.44.94-.44.6 0 1.11.46 1.11 1.12 0 .26-.09.55-.3.8-1.31 1.56-4.07 4.58-7.6 4.58-1.56 0-2.71-.73-3.38-1.73-.88 1-2.16 1.73-3.61 1.73-1.5 0-3.11-1.08-4.47-2.12-.68-.52-1.3-1.03-1.8-1.43-.52-.4-.87-.62-1.05-.63-.87-.01-1.27-.53-1.27-1.16 0-.58.48-1.13 1.27-1.13.57 0 1.17.27 1.8.67.6.42 1.24.94 1.9 1.46zm3.96-4.04c-.61 0-.95.43-.95 1.02 0 1.46 1.5 2.41 3.2 2.69.03-.17.05-.35.05-.53 0-1.69-1.04-3.18-2.3-3.18zm7.05-3.55c-.81 0-2.44 1.34-2.49 6.7 1.69-1.31 3.3-4.06 3.3-5.68 0-.64-.2-1.02-.81-1.02z" style="fill:#ff7d00"/><path class="st1" d="M33.08 43.53c-2.14-1.27-4.48-2.25-6.69-3.05-4.27-1.49-6.5-2.6-6.5-5.01 0-2.04 2.6-3.43 4.83-3.43 2.97 0 6.13 1.21 8.36 3.43l7.24-7.8c-4.27-3.99-9.1-6.41-15.6-6.41S9.49 26.37 9.49 35.84c0 3.09 1.02 5.62 2.64 7.69h20.95zM58.99 43.53v-1.84c0-4.92 3.34-9.75 9.75-9.75 5.57 0 8.82 4.27 8.82 9.75v1.84H88.7v-2.21c0-4.73 3.43-9.38 9.75-9.38 5.57 0 8.82 4.27 8.82 9.75v1.84h11.14v-2.58c0-12.53-5.94-19.68-17.55-19.68-8.36 0-13.55 4.73-15.41 7.15h-.19c-2.41-4.27-7.15-7.15-13-7.15-6.59 0-11.05 3.06-13.09 5.29h-.19V22.2H47.85v21.34h11.14zM217.51 43.53h11.14V31.94h10.21v-9.75h-10.21V5.48h-11.14v16.71h-8.36v9.75h8.36zM190.35 43.53c.23-4.86 3.44-11.13 11.12-11.13h3.25V21.27c-7.71 0-12.16 2.88-14.21 5.76h-.19V22.2h-11.14v21.34h11.17zM135.42 43.53c.79-6.81 5.89-11.59 12.88-11.59 6.99 0 12.01 4.78 12.79 11.59h11.35V22.19H161.3v4.18h-.19c-3.81-3.16-8.36-5.11-13.74-5.11-12.83 0-22.28 9.78-23.14 22.27h11.19zM36.72 46.28H14.91c2.4 1.88 5.3 3.21 8.04 4.14 3.99 1.3 6.31 2.41 6.31 4.92 0 1.86-2.78 3.43-5.48 3.43-3.71 0-6.31-1.39-8.91-3.71l-7.43 7.33c4.36 4.36 8.73 7.15 16.34 7.15 7.06 0 16.62-5.11 16.62-14.48.01-3.77-1.47-6.59-3.68-8.78zM179.19 46.28h11.14v22.33h-11.14zM217.51 46.28h11.14v22.33h-11.14zM47.85 46.28h11.14v22.33H47.85zM161.17 46.28c-.38 7.34-5.54 12.59-12.87 12.59-7.32 0-12.57-5.25-12.96-12.59h-11.16c.42 12.96 10.02 23.26 23.19 23.26 5.39 0 9.94-1.95 13.74-5.01h.19v4.08h11.14V46.28h-11.27zM77.56 46.28H88.7v22.33H77.56zM107.27 46.28h11.14v22.33h-11.14z"/></g></switch></svg>