<svg xmlns="http://www.w3.org/2000/svg" width="1327" height="251" viewBox="0 0 1326 251"><path style="stroke:none;fill-rule:nonzero;fill:#9339f2;fill-opacity:1" d="M630.172 126.844v78.125h-62.285V135.89c0-21.723-7.617-31.61-24.817-31.61-17.77 0-27.058 11.028-27.058 32.442v68.246h-62V63.96h44.27l16.046 28.773c10.973-21.726 30.434-33.015 56.938-33.015 38.62 0 58.906 23.136 58.906 67.125ZM655.492.949h63.703v45.512h-63.703Zm.852 63.004h62.015v141.024h-62.015Zm205.465-4.223c-22.844 0-42.54 8.461-54.383 25.348v.09l-.035-.063-11.809-21.136h-48.496v186.52h62v-62.704c12.96 14.11 28.73 21.414 50.734 21.414 42.282 0 70.762-29.582 70.762-75.863.012-44.25-27.352-73.606-68.773-73.606Zm-24.243 110.547c-18.07 0-29.609-13.23-29.609-33.562v-5.067c0-21.71 10.973-33.293 29.313-33.293 18.617 0 29.046 12.704 29.046 34.98 0 22.84-10.722 36.942-28.757 36.942Zm193.336-110.62c-49.672 0-83.18 19.23-87.086 52.495h63.055c1.399-10.98 9.633-16.941 23.656-16.941 13 0 20.973 5.187 20.973 16.18v5.289l-49.922 4.84c-22.89 2.511-37.539 6.687-47.137 13.77-9.843 7.081-14.648 17.21-14.648 30.495 0 26.793 21.727 43.352 57.86 43.352 26.952 0 48.855-9.996 56.534-25.953v-.133l.036.062c.035-.035.035-.097.062-.133v.266l12.113 21.715h47.665v-83.7c-.008-41.75-25.149-61.605-83.16-61.605Zm21.989 92.081c0 13.547-12.141 22.742-30.204 22.742-12.14 0-19.71-5.296-19.71-13.77 0-8.21 7.078-12.995 22.863-15.292l27.05-3.047Zm168.722-1.703-22.355 20.258v34.691h-62.008V.512h62.008v112.816l47.648-49.375h74.418l-51.508 49.23 52.645 91.794h-68.512ZM240.141.95v204.028H123.684L5.824.96H75.68l101.422 176.684V.949Zm196.195 134.574c0-47.164-29.566-76.226-83.2-77.828a122.058 122.058 0 0 0-4.784-.082c-4.946 0-9.872.27-14.399.887-46.015 4.664-74.96 32.64-74.96 74.484 0 46.528 42.948 74.09 92.523 74.09 21.554 0 41.964-2.582 65.379-20.547a128.32 128.32 0 0 0 6.593-5.379l-22.031-36.027a97.892 97.892 0 0 1-5.234 5.649c-8.403 8.292-20.723 16.738-39.008 16.738-19.723 0-37.29-11.797-39.567-25.836h118.688ZM317.64 112.055c1.398-15.188 11.886-21.696 29.843-21.696 17.829 0 28.555 8.426 28.555 21.696Zm0 0"/></svg>